Coordinates
version=1
nRows=11
nColumns=63
inDegrees=yes

Units are S.I. units (second, meters, Newtons, ...)
If the header above contains a line with 'inDegrees', this indicates whether rotational values are in degrees (yes) or radians (no).

endheader
time	pelvis_tilt	pelvis_list	pelvis_rotation	pelvis_tx	pelvis_ty	pelvis_tz	hip_flexion_r	hip_adduction_r	hip_rotation_r	knee_angle_r	knee_angle_r_beta	ankle_angle_r	subtalar_angle_r	mtp_angle_r	hip_flexion_l	hip_adduction_l	hip_rotation_l	knee_angle_l	knee_angle_l_beta	ankle_angle_l	subtalar_angle_l	mtp_angle_l	L5_S1_Flex_Ext	L5_S1_Lat_Bending	L5_S1_axial_rotation	L4_L5_Flex_Ext	L4_L5_Lat_Bending	L4_L5_axial_rotation	L3_L4_Flex_Ext	L3_L4_Lat_Bending	L3_L4_axial_rotation	L2_L3_Flex_Ext	L2_L3_Lat_Bending	L2_L3_axial_rotation	L1_L2_Flex_Ext	L1_L2_Lat_Bending	L1_L2_axial_rotation	L1_T12_Flex_Ext	L1_T12_Lat_Bending	L1_T12_axial_rotation	Abs_r3	Abs_r2	Abs_r1	Abs_t1	Abs_t2	neck_flexion	neck_bending	neck_rotation	arm_flex_r	arm_add_r	arm_rot_r	elbow_flex_r	pro_sup_r	wrist_flex_r	wrist_dev_r	arm_flex_l	arm_add_l	arm_rot_l	elbow_flex_l	pro_sup_l	wrist_flex_l	wrist_dev_l
      0.03333333	      4.06436457	     -1.34542859	    176.27793249	      2.54366109	      0.89114674	      0.21429705	      5.39260390	     -0.54084300	      6.38088905	      8.69840511	      0.15181581	     14.84464820	    -18.09196263	      0.00000000	      9.01084600	      0.13087738	     -6.01104434	     19.44755609	      0.33942389	     19.82675696	    -13.60483388	      0.00000000	      0.00015044	     -0.14092695	      0.33004547	      0.00027938	     -0.18743285	      0.35067331	      0.00024715	     -0.34264980	      0.35067331	      0.00017193	     -0.34264980	      0.28878978	      0.00013970	     -0.28737824	      0.26816194	      0.00008596	     -0.21829585	      0.24753410	      0.00107455	     -1.59419389	      1.83561387	      0.00000000	      0.00000000	     -0.00000000	      0.00000000	      0.00000000	      5.68735643	    -11.53541005	     42.23964553	     26.80644625	     44.63840978	      0.00000000	      5.51911263	      2.97662990	    -11.96975089	     37.19161323	     26.31066300	     49.01168411	      0.00000000	      5.51911263
      0.06666667	      4.05983540	     -1.33794334	    176.99398378	      2.54358785	      0.89130387	      0.21331517	      5.98729864	     -0.37149832	      4.93521875	     10.15408450	      0.17722221	     15.85121728	    -17.84841332	      0.00000000	      7.98272382	      1.01273827	     -2.22645452	     17.07684799	      0.29804722	     18.81482050	    -16.29140392	      0.00000000	     -0.00014323	     -0.17076861	      0.18928705	     -0.00026599	     -0.22712225	      0.20111749	     -0.00023531	     -0.41520679	      0.20111749	     -0.00016369	     -0.41520679	      0.16562617	     -0.00013300	     -0.34823134	      0.15379573	     -0.00008184	     -0.26452057	      0.14196529	     -0.00102305	     -1.93176863	      1.05275778	      0.00000000	      0.00000000	     -0.00000000	      0.00000000	      0.00000000	      5.90257280	    -11.25469844	     42.97830634	     26.50058366	     44.64958870	      0.00000000	      5.47178195	      2.84522042	    -12.15735758	     36.07628076	     26.46452087	     48.84969448	      0.00000000	      5.47178195
      0.10000000	      4.06408184	     -1.20982018	    177.49474316	      2.54359395	      0.89139243	      0.21252337	      6.47596130	     -0.09766373	      4.11359591	     11.32253243	      0.19761547	     16.37281388	    -18.07060664	      0.00000000	      7.11934904	      1.31047543	     -0.52235464	     15.17421813	      0.26484007	     18.62911069	    -16.32298649	      0.00000000	     -0.00103018	     -0.17911362	      0.08871361	     -0.00191315	     -0.23822112	      0.09425821	     -0.00169249	     -0.43549687	      0.09425821	     -0.00117740	     -0.43549687	      0.07762441	     -0.00095663	     -0.36524850	      0.07207981	     -0.00058865	     -0.27744700	      0.06653521	     -0.00735850	     -2.02616914	      0.49339847	      0.00000000	      0.00000000	     -0.00000000	      0.00000000	      0.00000000	      5.95968057	    -11.12957326	     43.16841144	     26.54425102	     44.64794872	      0.00000000	      5.46089673	      2.88698945	    -12.21177125	     35.56356832	     26.26106528	     48.77551445	      0.00000000	      5.46089673
      0.13333333	      4.03952405	     -1.24556491	    177.78675460	      2.54363685	      0.89134382	      0.21215149	      6.78465313	     -0.06134451	      3.74635082	     12.15296251	      0.21210921	     16.82317104	    -18.09840462	      0.00000000	      6.55108232	      1.62610006	      0.78358315	     13.97221197	      0.24386110	     18.52368762	    -16.50775171	      0.00000000	     -0.00318777	     -0.19677458	      0.02779787	     -0.00592000	     -0.26171019	      0.02953524	     -0.00523718	     -0.47843771	      0.02953524	     -0.00364330	     -0.47843771	      0.02432314	     -0.00296016	     -0.40126272	      0.02258577	     -0.00182149	     -0.30480383	      0.02084840	     -0.02276990	     -2.22595341	      0.15460341	      0.00000000	      0.00000000	     -0.00000000	      0.00000000	      0.00000000	      6.05544576	    -10.97500471	     43.29715898	     26.45803764	     44.64326612	      0.00000000	      5.45311482	      2.85395514	    -12.32897719	     35.06607687	     26.30665123	     48.69899740	      0.00000000	      5.45311482
      0.16666667	      4.07350803	     -1.53656130	    177.76759091	      2.54390466	      0.89113062	      0.21199288	      7.12541386	     -0.31521386	      3.82487738	     12.84996887	      0.22427427	     17.34749412	    -18.04288813	      0.00000000	      6.26479802	      2.11600171	      1.75750313	     13.17014886	      0.22986246	     17.76010287	    -17.55777308	      0.00000000	     -0.00069037	     -0.23633516	     -0.00294334	     -0.00128209	     -0.31432576	     -0.00312729	     -0.00113422	     -0.57462530	     -0.00312729	     -0.00078903	     -0.57462530	     -0.00257542	     -0.00064108	     -0.48193465	     -0.00239146	     -0.00039448	     -0.36608316	     -0.00220750	     -0.00493128	     -2.67347058	     -0.01636995	      0.00000000	      0.00000000	     -0.00000000	      0.00000000	      0.00000000	      6.25357217	    -10.77771866	     43.68366092	     26.29751803	     44.50001132	      0.00000000	      5.44535794	      2.30861264	    -12.19426839	     31.96939951	     26.71014073	     48.90778461	      0.00000000	      5.44535794
      0.20000000	      4.06517530	     -1.66887602	    177.84320965	      2.54402251	      0.89085168	      0.21231694	      7.02606008	     -0.43640812	      4.03544294	     12.82010629	      0.22375307	     17.57542467	    -18.09916987	      0.00000000	      6.18718010	      2.29312818	      2.03964561	     12.94094686	      0.22586213	     17.56709944	    -17.51969603	      0.00000000	     -0.00087814	     -0.25113562	     -0.03825618	     -0.00163079	     -0.33401037	     -0.04064719	     -0.00144269	     -0.61061114	     -0.04064719	     -0.00100362	     -0.61061114	     -0.03347415	     -0.00081544	     -0.51211575	     -0.03108314	     -0.00050177	     -0.38900907	     -0.02869213	     -0.00627245	     -2.84089633	     -0.21276937	      0.00000000	      0.00000000	     -0.00000000	      0.00000000	      0.00000000	      6.26299856	    -10.66839195	     43.45202018	     26.32582986	     43.92559190	      0.00000000	      5.47434873	      1.99979455	    -12.10138875	     30.25847544	     27.01130510	     50.16235750	      0.00000000	      5.47434873
      0.23333333	      4.03267643	     -1.78958173	    177.55722053	      2.54412016	      0.89044631	      0.21223741	      6.87768061	     -0.50694800	      4.70903595	     12.66820187	      0.22110183	     17.73698166	    -18.26042746	      0.00000000	      6.15251220	      2.35610436	      1.78023777	     12.93520198	      0.22576186	     17.49847692	    -17.24274362	      0.00000000	     -0.00022111	     -0.26291209	      0.00311431	     -0.00041063	     -0.34967308	      0.00330896	     -0.00036327	     -0.63924445	      0.00330896	     -0.00025271	     -0.63924445	      0.00272502	     -0.00020533	     -0.53613033	      0.00253038	     -0.00012634	     -0.40725083	      0.00233573	     -0.00157939	     -2.97411413	      0.01732088	      0.00000000	      0.00000000	     -0.00000000	      0.00000000	      0.00000000	      6.12062538	    -10.49379930	     42.63584455	     26.37142308	     43.54613878	      0.00000000	      5.48360433	      1.91573612	    -12.15341910	     30.00830474	     27.19383587	     50.92245681	      0.00000000	      5.48360433
      0.26666667	      3.97863593	     -1.82820860	    177.52259323	      2.54406059	      0.89002993	      0.21237222	      6.67728856	     -0.54026424	      4.81463033	     12.46896488	      0.21762449	     17.88915283	    -18.26121506	      0.00000000	      6.08978432	      2.36808966	      1.93233188	     12.93478285	      0.22575455	     17.32010790	    -17.26966513	      0.00000000	      0.00038875	     -0.26658603	      0.00729262	      0.00072195	     -0.35455942	      0.00774841	      0.00063868	     -0.64817727	      0.00774841	      0.00044431	     -0.64817727	      0.00638105	      0.00036100	     -0.54362223	      0.00592526	      0.00022213	     -0.41294176	      0.00546947	      0.00277682	     -3.01567449	      0.04055938	      0.00000000	      0.00000000	     -0.00000000	      0.00000000	      0.00000000	      5.98256407	    -10.34493370	     42.10446760	     26.36131053	     43.41387562	      0.00000000	      5.46584889	      1.84764007	    -12.19551446	     29.98193070	     27.38679184	     50.91315138	      0.00000000	      5.46584889
      0.30000000	      3.92461163	     -1.78215546	    177.41459562	      2.54387327	      0.88966347	      0.21213449	      6.53293910	     -0.47042914	      4.70875802	     12.31890869	      0.21500552	     18.02492437	    -18.12820079	      0.00000000	      5.97372326	      2.31197162	      2.09354695	     12.86302587	      0.22450215	     17.14145824	    -17.65328059	      0.00000000	     -0.00013765	     -0.26281671	      0.04047503	     -0.00025563	     -0.34954622	      0.04300472	     -0.00022615	     -0.63901254	      0.04300472	     -0.00015732	     -0.63901254	      0.03541565	     -0.00012782	     -0.53593583	      0.03288596	     -0.00007865	     -0.40710308	      0.03035627	     -0.00098322	     -2.97303516	      0.22510996	      0.00000000	      0.00000000	     -0.00000000	      0.00000000	      0.00000000	      5.11028452	     -9.68852363	     37.80144025	     26.62860927	     42.18119183	      0.00000000	      5.43246069	      1.86689126	    -12.21976463	     29.98363329	     27.40727429	     51.89972669	      0.00000000	      5.43246069
      0.33333333	      3.86922014	     -1.60218366	    177.60327819	      2.54361438	      0.88945400	      0.21213486	      6.34443934	     -0.29160847	      4.27147981	     12.07368732	      0.21072560	     18.00062634	    -18.07201688	      0.00000000	      5.86896355	      2.14630766	      2.34133288	     12.80643526	      0.22351446	     17.23861416	    -17.74100100	      0.00000000	     -0.00023366	     -0.24522054	      0.03003724	     -0.00043393	     -0.32614331	      0.03191456	     -0.00038388	     -0.59622921	      0.03191456	     -0.00026705	     -0.59622921	      0.02628258	     -0.00021698	     -0.50005372	      0.02440526	     -0.00013351	     -0.37984661	      0.02252793	     -0.00166900	     -2.77398376	      0.16705810	      0.00000000	      0.00000000	     -0.00000000	      0.00000000	      0.00000000	      4.36464271	     -9.11891146	     34.20776391	     26.84485351	     41.63251654	      0.00000000	      5.28743468	      1.98333990	    -12.31322118	     30.66936305	     27.43228976	     52.01663547	      0.00000000	      5.28743468
      0.36666667	      3.80450301	     -1.33787331	    177.83218302	      2.54333294	      0.88940697	      0.21202381	      6.21595649	     -0.01809895	      3.90449729	     11.91065826	      0.20788020	     17.85279024	    -18.19950715	      0.00000000	      5.72177753	      1.88526219	      2.37044730	     12.67547873	      0.22122884	     17.52944447	    -17.54089360	      0.00000000	      0.00017433	     -0.22106025	      0.01295252	      0.00032374	     -0.29401014	      0.01376205	      0.00028640	     -0.53748590	      0.01376205	      0.00019924	     -0.53748590	      0.01133345	      0.00016188	     -0.45078607	      0.01052392	      0.00009961	     -0.34242233	      0.00971439	      0.00124519	     -2.50067781	      0.07203803	      0.00000000	      0.00000000	     -0.00000000	      0.00000000	      0.00000000	      4.06118338	     -8.90598424	     33.11555086	     26.87021227	     41.52092335	      0.00000000	      5.25840845	      2.00934721	    -12.28059357	     30.58536931	     27.41364177	     52.10167532	      0.00000000	      5.25840845
